<svg width="30" height="27" viewBox="0 0 30 27" fill="none" xmlns="http://www.w3.org/2000/svg">
<path d="M14.9805 0C8.5565 0 3.32898 5.22752 3.32898 11.6515V14.9805C3.32898 15.9005 4.07345 16.645 4.99348 16.645C5.9135 16.645 6.65797 15.9005 6.65797 14.9805V11.6515C6.65797 7.06268 10.3917 3.32899 14.9805 3.32899C19.5693 3.32899 23.3029 7.06268 23.3029 11.6515V14.9805C23.3029 15.9005 24.0474 16.645 24.9674 16.645C25.8875 16.645 26.6319 15.9005 26.6319 14.9805V11.6515C26.6319 5.22752 21.4044 0 14.9805 0Z" fill="#662852"/>
<path d="M23.303 11.6515V14.9805C23.303 15.9005 24.0474 16.645 24.9674 16.645C25.8875 16.645 26.6319 15.9005 26.6319 14.9805V11.6515C26.6319 5.22752 21.4044 0 14.9805 0V3.32899C19.5693 3.32899 23.303 7.06268 23.303 11.6515Z" fill="#4D173B"/>
<path d="M8.32248 26.7429H4.99349C2.23997 26.7429 0 24.5029 0 21.7494V18.3095C0 15.5559 2.23997 13.316 4.99349 13.316H8.32248C9.24251 13.316 9.98698 14.0605 9.98698 14.9805V25.0784C9.98698 25.9984 9.24251 26.7429 8.32248 26.7429Z" fill="#623378"/>
<path d="M24.9674 26.7429H21.6384C20.7184 26.7429 19.9739 25.9984 19.9739 25.0784V14.9805C19.9739 14.0605 20.7184 13.316 21.6384 13.316H24.9674C27.7209 13.316 29.9609 15.5559 29.9609 18.3095V21.7494C29.9609 24.5029 27.7209 26.7429 24.9674 26.7429Z" fill="#623378"/>
</svg>
