<svg width="20" height="19" viewBox="0 0 20 19" fill="none" xmlns="http://www.w3.org/2000/svg">
<path d="M3.6425 15.2C3.6925 15.2 3.7425 15.1952 3.7925 15.1881L7.9975 14.4875C8.0475 14.478 8.095 14.4566 8.13 14.421L18.7275 4.35337C18.7507 4.3314 18.7691 4.3053 18.7816 4.27657C18.7942 4.24784 18.8006 4.21704 18.8006 4.18594C18.8006 4.15483 18.7942 4.12403 18.7816 4.0953C18.7691 4.06657 18.7507 4.04047 18.7275 4.0185L14.5725 0.068875C14.525 0.02375 14.4625 0 14.395 0C14.3275 0 14.265 0.02375 14.2175 0.068875L3.62 10.1365C3.5825 10.1721 3.56 10.2149 3.55 10.2624L2.8125 14.2571C2.78818 14.3844 2.79687 14.5153 2.83782 14.6386C2.87877 14.7619 2.95074 14.8739 3.0475 14.9649C3.2125 15.1169 3.42 15.2 3.6425 15.2V15.2ZM5.3275 11.058L14.395 2.44625L16.2275 4.18712L7.16 12.7989L4.9375 13.1717L5.3275 11.058V11.058ZM19.2 17.195H0.8C0.3575 17.195 0 17.5346 0 17.955V18.81C0 18.9145 0.09 19 0.2 19H19.8C19.91 19 20 18.9145 20 18.81V17.955C20 17.5346 19.6425 17.195 19.2 17.195Z" fill="black"/>
</svg>
