<svg width="13" height="14" viewBox="0 0 13 14" fill="none" xmlns="http://www.w3.org/2000/svg">
<path d="M7 3.27909C8.13919 3.27909 8.90762 3.77119 9.34582 4.18238L11.058 2.51067C10.0064 1.53323 8.638 0.933334 7 0.933334C4.62729 0.933334 2.5781 2.29495 1.58048 4.27671L3.542 5.80014C4.0341 4.33738 5.39572 3.27909 7 3.27909Z" fill="#EA4335"/>
<path d="M12.824 7.13481C12.824 6.636 12.7836 6.272 12.6959 5.89452H7V8.1459H10.3434C10.276 8.70537 9.912 9.548 9.10309 10.1142L11.0175 11.5972C12.1634 10.5388 12.824 8.98176 12.824 7.13481Z" fill="#4285F4"/>
<path d="M3.54877 8.19986C3.42067 7.82238 3.34652 7.4179 3.34652 7C3.34652 6.58204 3.42067 6.17762 3.542 5.80014L1.58043 4.27671C1.16929 5.09909 0.933333 6.02257 0.933333 7C0.933333 7.97738 1.16929 8.90091 1.58043 9.72323L3.54877 8.19986Z" fill="#FBBC05"/>
<path d="M7 13.0667C8.638 13.0667 10.0131 12.5274 11.0175 11.5972L9.10309 10.1142C8.59081 10.4715 7.90323 10.7209 7 10.7209C5.39572 10.7209 4.0341 9.66257 3.54877 8.19986L1.58719 9.72323C2.58481 11.7051 4.62723 13.0667 7 13.0667Z" fill="#34A853"/>
</svg>
