<svg width="18" height="18" viewBox="0 0 18 18" fill="none" xmlns="http://www.w3.org/2000/svg">
<path fill-rule="evenodd" clip-rule="evenodd" d="M3.85714 12.8571H1.28571V16.7143H3.85714V12.8571ZM10.2857 7.71429H7.71429V16.7143H10.2857V7.71429ZM16.7143 1.28571H14.1429V16.7143H16.7143V1.28571ZM14.1429 0C13.8019 0 13.4748 0.135459 13.2337 0.376577C12.9926 0.617695 12.8571 0.944722 12.8571 1.28571V16.7143C12.8571 17.0553 12.9926 17.3823 13.2337 17.6234C13.4748 17.8645 13.8019 18 14.1429 18H16.7143C17.0553 18 17.3823 17.8645 17.6234 17.6234C17.8645 17.3823 18 17.0553 18 16.7143V1.28571C18 0.944722 17.8645 0.617695 17.6234 0.376577C17.3823 0.135459 17.0553 0 16.7143 0H14.1429ZM6.42857 7.71429C6.42857 7.37329 6.56403 7.04627 6.80515 6.80515C7.04627 6.56403 7.37329 6.42857 7.71429 6.42857H10.2857C10.6267 6.42857 10.9537 6.56403 11.1949 6.80515C11.436 7.04627 11.5714 7.37329 11.5714 7.71429V16.7143C11.5714 17.0553 11.436 17.3823 11.1949 17.6234C10.9537 17.8645 10.6267 18 10.2857 18H7.71429C7.37329 18 7.04627 17.8645 6.80515 17.6234C6.56403 17.3823 6.42857 17.0553 6.42857 16.7143V7.71429ZM0 12.8571C0 12.5162 0.135459 12.1891 0.376577 11.948C0.617695 11.7069 0.944722 11.5714 1.28571 11.5714H3.85714C4.19814 11.5714 4.52516 11.7069 4.76628 11.948C5.0074 12.1891 5.14286 12.5162 5.14286 12.8571V16.7143C5.14286 17.0553 5.0074 17.3823 4.76628 17.6234C4.52516 17.8645 4.19814 18 3.85714 18H1.28571C0.944722 18 0.617695 17.8645 0.376577 17.6234C0.135459 17.3823 0 17.0553 0 16.7143V12.8571Z" fill="black"/>
</svg>
