<svg
  width="30"
  height="20"
  viewBox="0 0 30 20"
  fill="none"
  xmlns="http://www.w3.org/2000/svg"
>
<path
    id="Vector"
    d="M26.9 2.00001C25.8 2.00001 24.8 2.90001 24.8 4.10001V5.80001H23.6V5.20001C23.6 4.50001 23.1 3.90001 22.5 3.60001C22.3 2.50001 21.4 1.60001 20.4 1.40001V1.10001C20.4 0.800006 20.2 0.600006 19.9 0.600006C19.6 0.600006 19.4 0.800006 19.4 1.10001V1.40001C18.3 1.60001 17.4 2.50001 17.3 3.60001C16.5 3.80001 16 4.50001 16 5.20001V5.70001H14.2C12.6 5.70001 11.1 5.40001 9.30001 4.60001C9.30001 4.60001 9.30001 4.60001 9.20001 4.60001L5.00001 2.50001C4.00001 2.10001 3.20001 1.90001 2.50001 1.80001C2.30001 1.80001 2.20001 1.80001 2.10001 1.90001C1.90001 2.10001 1.20001 2.80001 1.00001 3.40001C0.900012 3.70001 1.10001 4.00001 1.40001 4.10001C3.20001 4.60001 4.70001 6.20001 6.40001 8.00001C7.00001 8.60001 7.60001 9.30001 8.20001 9.90001C9.00001 10.7 10 11.5 11 12.2C12.5 13.2 14.1 13.9 15.9 14.1C15.7 14.7 15.4 15.5 15 16H14.7C13.8 16 13.1 16.7 13.1 17.6V18.7C13.1 19 13.3 19.2 13.6 19.2H22.4C22.7 19.2 22.9 19 22.9 18.7V17.6C22.9 16.7 22.2 16 21.3 16H21C20.6 15.5 20.2 14.7 20.1 14.1C20.4 14 20.8 14 21.1 13.9C21.1 13.9 21.1 13.9 21.2 13.9C23 13.4 24.1 12.5 25.2 10.6L25.3 10.5C25.5 10.1 25.7 9.70001 25.8 9.30001C26 8.60001 26.2 7.70001 26.2 6.80001H27.2C28.3 6.80001 29.3 5.90001 29.3 4.70001V4.10001C29 2.90001 28.1 2.00001 26.9 2.00001ZM19.8 2.50001C20.5 2.50001 21.1 3.00001 21.3 3.60001H18.2C18.5 2.90001 19.1 2.50001 19.8 2.50001ZM17.1 5.20001C17.1 4.90001 17.3 4.70001 17.6 4.70001H22C22.3 4.70001 22.5 4.90001 22.5 5.20001V5.70001H17V5.20001H17.1ZM21.2 17.2C21.5 17.2 21.7 17.4 21.7 17.7V18.2H14V17.7C14 17.4 14.2 17.2 14.5 17.2H21.2ZM16.3 16.1C16.6 15.5 16.9 14.9 17 14.3C17.3 14.3 17.6 14.3 17.9 14.3C18.2 14.3 18.5 14.3 18.8 14.3C18.9 14.8 19.2 15.5 19.5 16.1H16.3ZM20.7 12.9C20.7 12.9 20.6 12.9 20.7 12.9C19.9 13.2 19 13.3 18 13.3C14.3 13.3 11.7 11.6 9.60001 9.70001C9.40001 9.50001 8.70001 8.80001 8.70001 8.80001C8.20001 8.30001 7.70001 7.80001 7.20001 7.20001C5.60001 5.60001 4.10001 4.00001 2.30001 3.20001C2.40001 3.10001 2.50001 3.00001 2.60001 2.90001C3.10001 3.00001 3.70001 3.20001 4.40001 3.50001L6.60001 4.50001C6.60001 4.50001 6.70001 4.50001 6.70001 4.60001H6.80001L8.90001 5.60001C10.8 6.40001 12.5 6.80001 14.2 6.80001H24.9C24.9 7.40001 24.8 7.90001 24.7 8.40001C24.7 8.70001 24.3 9.80001 24.1 9.90001C24.1 9.90001 24.1 9.90001 24.1 10C22.8 12.3 20.8 12.8 20.7 12.9ZM27.9 4.80001C27.9 5.30001 27.5 5.80001 26.9 5.80001H25.9V4.10001C25.9 3.60001 26.3 3.10001 26.9 3.10001C27.4 3.10001 27.9 3.50001 27.9 4.10001V4.80001Z"
    fill="#FFC633"
  />
</svg>
