<svg
  width="14"
  height="14"
  viewBox="0 0 14 14"
  fill="none"
  xmlns="http://www.w3.org/2000/svg"
>
<path
    d="M10 4.14286L13 5.57143V13L9.18182 11.2857M9.18182 11.2857L4.81818 13M9.18182 11.2857V7.28571M4.81818 13L1 11.2857V3.85714L3.72727 5M4.81818 13V7.28571M7 9.72743C7 9.72743 3.72727 7 3.72727 4.42857C3.72727 2.28571 5.36364 1 7 1C8.63636 1 10.2727 2.28571 10.2727 4.42857C10.2727 7 7 9.72743 7 9.72743ZM7.54545 4.42857C7.54545 4.27702 7.48799 4.13167 7.38569 4.02451C7.2834 3.91735 7.14466 3.85714 7 3.85714C6.85534 3.85714 6.7166 3.91735 6.61431 4.02451C6.51201 4.13167 6.45455 4.27702 6.45455 4.42857C6.45455 4.58012 6.51201 4.72547 6.61431 4.83263C6.7166 4.9398 6.85534 5 7 5C7.14466 5 7.2834 4.9398 7.38569 4.83263C7.48799 4.72547 7.54545 4.58012 7.54545 4.42857Z"
    stroke="black"
  />
</svg>
