<svg width="17" height="18" viewBox="0 0 17 18" fill="none" xmlns="http://www.w3.org/2000/svg">
<path d="M12.5359 2.4043L11.893 3.51645C13.2411 4.2948 14.2948 5.49623 14.8905 6.93442C15.4862 8.37261 15.5907 9.96718 15.1878 11.4708C14.7849 12.9745 13.8971 14.3031 12.6621 15.2508C11.4271 16.1984 9.91394 16.7121 8.35726 16.7121C6.80057 16.7121 5.28739 16.1984 4.05239 15.2508C2.81739 14.3031 1.92959 12.9745 1.52669 11.4708C1.12379 9.96718 1.2283 8.37261 1.82402 6.93442C2.41974 5.49623 3.47337 4.2948 4.8215 3.51645L4.17863 2.4043C2.58539 3.32416 1.34019 4.74403 0.636161 6.44371C-0.0678684 8.14339 -0.191384 10.0279 0.284769 11.8049C0.760923 13.5819 1.81014 15.1522 3.26968 16.2721C4.72923 17.3921 6.51754 17.9991 8.35726 17.9991C10.197 17.9991 11.9853 17.3921 13.4448 16.2721C14.9044 15.1522 15.9536 13.5819 16.4297 11.8049C16.9059 10.0279 16.7824 8.14339 16.0784 6.44371C15.3743 4.74403 14.1291 3.32416 12.5359 2.4043V2.4043Z" fill="black"/>
<path d="M7.71436 0H9.00009V9.00012H7.71436V0Z" fill="black"/>
</svg>
