<svg
  width="30"
  height="20"
  viewBox="0 0 28 20"
  fill="none"
  xmlns="http://www.w3.org/2000/svg"
>
<path
    id="Vector"
    d="M25.9 2C24.8 2 23.8 2.9 23.8 4.1V5.8H22.6V5.2C22.6 4.5 22.1 3.9 21.5 3.6C21.3 2.5 20.4 1.6 19.4 1.4V1.1C19.4 0.799998 19.2 0.599998 18.9 0.599998C18.6 0.599998 18.4 0.799998 18.4 1.1V1.4C17.3 1.6 16.4 2.5 16.3 3.6C15.5 3.8 15 4.5 15 5.2V5.7H13.2C11.6 5.7 10.1 5.4 8.30001 4.6C8.30001 4.6 8.30001 4.6 8.20001 4.6L4.00001 2.5C3.00001 2.1 2.20001 1.9 1.50001 1.8C1.30001 1.8 1.20001 1.8 1.10001 1.9C0.900012 2.1 0.200012 2.8 1.19824e-05 3.4C-0.099988 3.7 0.100012 4 0.400012 4.1C2.20001 4.6 3.70001 6.2 5.40001 8C6.00001 8.6 6.60001 9.3 7.20001 9.9C8.00001 10.7 9.00001 11.5 10 12.2C11.5 13.2 13.1 13.9 14.9 14.1C14.7 14.7 14.4 15.5 14 16H13.7C12.8 16 12.1 16.7 12.1 17.6V18.7C12.1 19 12.3 19.2 12.6 19.2H21.4C21.7 19.2 21.9 19 21.9 18.7V17.6C21.9 16.7 21.2 16 20.3 16H20C19.6 15.5 19.2 14.7 19.1 14.1C19.4 14 19.8 14 20.1 13.9C20.1 13.9 20.1 13.9 20.2 13.9C22 13.4 23.1 12.5 24.2 10.6L24.3 10.5C24.5 10.1 24.7 9.7 24.8 9.3C25 8.6 25.2 7.7 25.2 6.8H26.2C27.3 6.8 28.3 5.9 28.3 4.7V4.1C28 2.9 27.1 2 25.9 2ZM18.8 2.5C19.5 2.5 20.1 3 20.3 3.6H17.2C17.5 2.9 18.1 2.5 18.8 2.5ZM16.1 5.2C16.1 4.9 16.3 4.7 16.6 4.7H21C21.3 4.7 21.5 4.9 21.5 5.2V5.7H16V5.2H16.1ZM20.2 17.2C20.5 17.2 20.7 17.4 20.7 17.7V18.2H13V17.7C13 17.4 13.2 17.2 13.5 17.2H20.2ZM15.3 16.1C15.6 15.5 15.9 14.9 16 14.3C16.3 14.3 16.6 14.3 16.9 14.3C17.2 14.3 17.5 14.3 17.8 14.3C17.9 14.8 18.2 15.5 18.5 16.1H15.3ZM19.7 12.9C19.7 12.9 19.6 12.9 19.7 12.9C18.9 13.2 18 13.3 17 13.3C13.3 13.3 10.7 11.6 8.60001 9.7C8.40001 9.5 7.70001 8.8 7.70001 8.8C7.20001 8.3 6.70001 7.8 6.20001 7.2C4.60001 5.6 3.10001 4 1.30001 3.2C1.40001 3.1 1.50001 3 1.60001 2.9C2.10001 3 2.70001 3.2 3.40001 3.5L5.60001 4.5C5.60001 4.5 5.70001 4.5 5.70001 4.6H5.80001L7.90001 5.6C9.80001 6.4 11.5 6.8 13.2 6.8H23.9C23.9 7.4 23.8 7.9 23.7 8.4C23.7 8.7 23.3 9.8 23.1 9.9C23.1 9.9 23.1 9.9 23.1 10C21.8 12.3 19.8 12.8 19.7 12.9ZM26.9 4.8C26.9 5.3 26.5 5.8 25.9 5.8H24.9V4.1C24.9 3.6 25.3 3.1 25.9 3.1C26.4 3.1 26.9 3.5 26.9 4.1V4.8Z"
    fill="#545454"
  />
</svg>
