<svg width="28" height="20" viewBox="0 0 28 20" fill="none" xmlns="http://www.w3.org/2000/svg">
<path d="M3.45206 5.41113L0.814453 3.5335L1.2168 2.50528H1.93209L3.45206 2.95233L6.08968 3.80173L9.5767 5.41113L12.1696 6.30523H16.0143H21.2448H23.3906H24.3742V7.02052C24.3891 7.31855 24.4099 7.98615 24.3742 8.27227C24.3295 8.62991 24.1506 9.07696 24.1059 9.30049C24.0702 9.47931 23.7632 9.94127 23.6142 10.1499C23.3161 10.4926 22.6932 11.2228 22.5859 11.4016C22.4518 11.6252 21.1107 12.564 20.9319 12.6981C20.7888 12.8054 18.3985 13.5475 17.2213 13.9051L13.779 13.3687L10.292 12.0722L8.50377 10.4628C7.9077 9.80715 6.68873 8.45109 6.58144 8.27227C6.47415 8.09345 4.45048 6.29033 3.45206 5.41113Z" fill="#E79347"/>
<path d="M25.6508 2C24.5741 2 23.5953 2.9 23.5953 4.1V5.8H22.4207V5.2C22.4207 4.5 21.9313 3.9 21.3441 3.6C21.1483 2.5 20.2674 1.6 19.2885 1.4V1.1C19.2885 0.799998 19.0928 0.599998 18.7991 0.599998C18.5055 0.599998 18.3097 0.799998 18.3097 1.1V1.4C17.233 1.6 16.3521 2.5 16.2542 3.6C15.4711 3.8 14.9817 4.5 14.9817 5.2V5.7H13.2199C11.6538 5.7 10.1855 5.4 8.42366 4.6C8.42366 4.6 8.42366 4.6 8.32578 4.6L4.21475 2.5C3.23593 2.1 2.45288 1.9 1.76771 1.8C1.57194 1.8 1.47406 1.8 1.37618 1.9C1.18041 2.1 0.495243 2.8 0.299479 3.4C0.201598 3.7 0.397361 4 0.691006 4.1C2.45288 4.6 3.9211 6.2 5.58509 8C6.17238 8.6 6.75967 9.3 7.34696 9.9C8.13002 10.7 9.10884 11.5 10.0877 12.2C11.5559 13.2 13.122 13.9 14.8839 14.1C14.6881 14.7 14.3944 15.5 14.0029 16H13.7093C12.8283 16 12.1432 16.7 12.1432 17.6V18.7C12.1432 19 12.3389 19.2 12.6326 19.2H21.2462C21.5398 19.2 21.7356 19 21.7356 18.7V17.6C21.7356 16.7 21.0504 16 20.1695 16H19.8758C19.4843 15.5 19.0928 14.7 18.9949 14.1C19.2885 14 19.6801 14 19.9737 13.9C19.9737 13.9 19.9737 13.9 20.0716 13.9C21.8335 13.4 22.9102 12.5 23.9869 10.6L24.0847 10.5C24.2805 10.1 24.4763 9.7 24.5741 9.3C24.7699 8.6 24.9657 7.7 24.9657 6.8H25.9445C27.0212 6.8 28 5.9 28 4.7V4.1C27.7064 2.9 26.8254 2 25.6508 2ZM18.7012 2.5C19.3864 2.5 19.9737 3 20.1695 3.6H17.1351C17.4288 2.9 18.0161 2.5 18.7012 2.5ZM16.0584 5.2C16.0584 4.9 16.2542 4.7 16.5478 4.7H20.8546C21.1483 4.7 21.3441 4.9 21.3441 5.2V5.7H15.9606V5.2H16.0584ZM20.0716 17.2C20.3652 17.2 20.561 17.4 20.561 17.7V18.2H13.0241V17.7C13.0241 17.4 13.2199 17.2 13.5135 17.2H20.0716ZM15.2754 16.1C15.569 15.5 15.8627 14.9 15.9606 14.3C16.2542 14.3 16.5478 14.3 16.8415 14.3C17.1351 14.3 17.4288 14.3 17.7224 14.3C17.8203 14.8 18.114 15.5 18.4076 16.1H15.2754ZM19.5822 12.9C18.7991 13.2 17.9182 13.3 16.9394 13.3C13.3177 13.3 10.7728 11.6 8.71731 9.7C8.52155 9.5 7.83637 8.8 7.83637 8.8C7.34696 8.3 6.85755 7.8 6.36815 7.2C4.80204 5.6 3.33381 4 1.57194 3.2C1.66982 3.1 1.76771 3 1.86559 2.9C2.355 3 2.94229 3.2 3.62746 3.5L5.78086 4.5C5.78086 4.5 5.87874 4.5 5.87874 4.6H5.97662L8.03214 5.6C9.89189 6.4 11.5559 6.8 13.2199 6.8H23.6932C23.6932 7.4 23.5953 7.9 23.4974 8.4C23.4974 8.7 23.1059 9.8 22.9102 9.9C22.9102 9.9 22.9102 9.9 22.9102 10C21.6377 12.3 19.6801 12.8 19.5822 12.9ZM26.6297 4.8C26.6297 5.3 26.2381 5.8 25.6508 5.8H24.672V4.1C24.672 3.6 25.0636 3.1 25.6508 3.1C26.1403 3.1 26.6297 3.5 26.6297 4.1V4.8Z" fill="#E79347"/>
</svg>
